# xmcd
#
# Track frame offsets: 
#        150
#        14550
#        31730
#        47818
#        62201
#        84092
#        99489
#        114636
#        127141
#
# Disc length: 2029 seconds
#
# Revision: 0
# Processed by: cddbd v1.5.2PL0 Copyright (c) Steve Scherf et al.
# Submitted via: ExactAudioCopy v1.0b3
#
DISCID=7207eb09
DTITLE=SHIN - Good Morning Dreamer
DYEAR=2017
DGENRE=
TTITLE0=jack the ripper
TTITLE1=why not？
TTITLE2=just going true side
TTITLE3=4444
TTITLE4=WEAKEND
TTITLE5=TERRITORY
TTITLE6=dirty hurry
TTITLE7=restart
TTITLE8=2015.4.29
EXTD=
EXTT0=
EXTT1=
EXTT2=
EXTT3=
EXTT4=
EXTT5=
EXTT6=
EXTT7=
EXTT8=
PLAYORDER=
